<svg width="16" height="16" viewBox="0 0 16 16" fill="none" xmlns="http://www.w3.org/2000/svg">
<path d="M9.33319 15.3334C9.06652 15.3334 8.79985 15.1334 8.73319 14.8668L7.19985 10.2667C7.06652 9.93341 7.26652 9.53341 7.59985 9.40008C7.93318 9.26674 8.33318 9.46674 8.46652 9.80008L9.39985 12.6667L13.4665 2.46673L3.26651 6.60007L6.13318 7.5334C6.46651 7.66674 6.66652 8.00007 6.53318 8.40007C6.39985 8.73341 6.06651 8.93341 5.66651 8.80007L1.0665 7.26674C0.866504 7.20007 0.666504 6.9334 0.666504 6.66674C0.666504 6.40007 0.799838 6.1334 1.0665 6.00007L14.3999 0.666724C14.6665 0.600057 14.9332 0.666724 15.1332 0.866724C15.3332 1.06672 15.3999 1.33339 15.2665 1.60006L9.93319 14.9334C9.86652 15.2001 9.59985 15.3334 9.33319 15.3334Z" fill="#B4BBC5"/>
<path d="M2.66651 15.3335C2.13317 15.3335 1.66651 15.1335 1.26651 14.7335C0.466504 13.9335 0.466504 12.6668 1.26651 11.9335L5.46651 7.73345C5.73318 7.46678 6.13318 7.46678 6.39985 7.73345C6.66652 8.00011 6.66652 8.40012 6.39985 8.66678L2.19984 12.8668C2.06651 13.0001 1.99984 13.1335 1.99984 13.3335C1.99984 13.5335 2.06651 13.6668 2.19984 13.8001C2.46651 14.0668 2.86651 14.0668 3.13318 13.8001L7.33318 9.60012C7.59985 9.33345 7.99985 9.33345 8.26652 9.60012C8.53319 9.86678 8.53319 10.2668 8.26652 10.5335L4.06651 14.7335C3.66651 15.1335 3.19984 15.3335 2.66651 15.3335Z" fill="#B4BBC5"/>
</svg>
