<svg width="16" height="16" viewBox="0 0 16 16" fill="none" xmlns="http://www.w3.org/2000/svg">
<g clip-path="url(#clip0)">
<path d="M-3.1058e-05 8.00001C-3.08657e-05 3.60001 3.59998 -5.42022e-07 7.99998 -3.49692e-07C12.4 -1.57361e-07 16 3.60001 16 8.00002C16 12.4 12.4 16 7.99998 16C3.59998 16 -3.12503e-05 12.4 -3.1058e-05 8.00001ZM14.6667 8.00002C14.6667 4.33334 11.6667 1.33334 7.99998 1.33334C4.33331 1.33334 1.33331 4.33334 1.33331 8.00001C1.33331 11.6667 4.33331 14.6667 7.99998 14.6667C11.6667 14.6667 14.6667 11.6667 14.6667 8.00002Z" fill="#B4BBC5"/>
<path d="M5.33316 9.33342C5.33316 9.13342 5.39983 9.00008 5.53316 8.86675C5.79983 8.60008 6.19983 8.60008 6.4665 8.86675L7.99983 10.4001L9.53317 8.86675C9.79984 8.60008 10.1998 8.60008 10.4665 8.86675C10.7332 9.13342 10.7332 9.53342 10.4665 9.80008L8.4665 11.8001C8.19983 12.0668 7.79983 12.0668 7.53316 11.8001L5.53316 9.80008C5.39983 9.66675 5.33316 9.53342 5.33316 9.33342Z" fill="#B4BBC5"/>
<path d="M5.33316 6.66667C5.33316 6.46667 5.39983 6.33334 5.53316 6.2L7.53316 4.2C7.79983 3.93333 8.19983 3.93333 8.4665 4.2L10.4665 6.2C10.7332 6.46667 10.7332 6.86667 10.4665 7.13334C10.1998 7.40001 9.79984 7.40001 9.53317 7.13334L7.99983 5.6L6.4665 7.13334C6.19983 7.40001 5.79983 7.40001 5.53316 7.13334C5.39983 7.00001 5.33316 6.86667 5.33316 6.66667Z" fill="#B4BBC5"/>
</g>
<defs>
<clipPath id="clip0">
<rect width="16" height="16" fill="white" transform="translate(16) rotate(90)"/>
</clipPath>
</defs>
</svg>
