<svg width="16" height="16" viewBox="0 0 16 16" fill="none" xmlns="http://www.w3.org/2000/svg">
<g clip-path="url(#clip0)">
<path d="M8.00002 16C3.60001 16 0 12.4 0 8.00002C0 3.60001 3.60001 0 8.00002 0C12.4 0 16 3.60001 16 8.00002C16 12.4 12.4 16 8.00002 16ZM8.00002 1.33334C4.33334 1.33334 1.33334 4.33334 1.33334 8.00002C1.33334 11.6667 4.33334 14.6667 8.00002 14.6667C11.6667 14.6667 14.6667 11.6667 14.6667 8.00002C14.6667 4.33334 11.6667 1.33334 8.00002 1.33334Z" fill="#B4BBC5"/>
<path d="M8.00016 8.66664C7.60016 8.66664 7.3335 8.39997 7.3335 7.99997V3.33329C7.3335 2.93329 7.60016 2.66663 8.00016 2.66663C8.40017 2.66663 8.66683 2.93329 8.66683 3.33329V7.99997C8.66683 8.39997 8.40017 8.66664 8.00016 8.66664Z" fill="#B4BBC5"/>
<path d="M10.6668 11.3334C10.4668 11.3334 10.3335 11.2667 10.2002 11.1334L7.5335 8.46671C7.26683 8.20004 7.26683 7.80004 7.5335 7.53337C7.80016 7.26671 8.20016 7.26671 8.46683 7.53337L11.1335 10.2C11.4002 10.4667 11.4002 10.8667 11.1335 11.1334C11.0002 11.2667 10.8668 11.3334 10.6668 11.3334Z" fill="#B4BBC5"/>
</g>
<defs>
<clipPath id="clip0">
<rect width="16" height="16" fill="white"/>
</clipPath>
</defs>
</svg>
