<svg width="16" height="16" viewBox="0 0 16 16" fill="none" xmlns="http://www.w3.org/2000/svg">
<g clip-path="url(#clip0)">
<path d="M7.99992 10.6667C6.53325 10.6667 5.33325 9.46672 5.33325 8.00005C5.33325 6.53338 6.53325 5.33337 7.99992 5.33337C9.46659 5.33337 10.6666 6.53338 10.6666 8.00005C10.6666 9.46672 9.46659 10.6667 7.99992 10.6667ZM7.99992 6.66671C7.26659 6.66671 6.66659 7.26671 6.66659 8.00005C6.66659 8.73338 7.26659 9.33338 7.99992 9.33338C8.73326 9.33338 9.33326 8.73338 9.33326 8.00005C9.33326 7.26671 8.73326 6.66671 7.99992 6.66671Z" fill="#B4BBC5"/>
<path d="M8 14C3.02075 14 0.232365 8.6 0.0995851 8.375C-0.033195 8.15 -0.033195 7.85 0.0995851 7.625C0.232365 7.4 3.02075 2 8 2C12.9793 2 15.7676 7.4 15.9004 7.625C16.0332 7.85 16.0332 8.15 15.9004 8.375C15.7676 8.6 12.9793 14 8 14ZM1.49378 8C2.15768 9.125 4.48133 12.5 8 12.5C11.5187 12.5 13.8423 9.125 14.5062 8C13.8423 6.875 11.5187 3.5 8 3.5C4.48133 3.5 2.15768 6.875 1.49378 8Z" fill="#B4BBC5"/>
</g>
<defs>
<clipPath id="clip0">
<rect width="16" height="16" fill="white"/>
</clipPath>
</defs>
</svg>
